<svg xmlns="http://www.w3.org/2000/svg" xmlns:xlink="http://www.w3.org/1999/xlink" width="96" zoomAndPan="magnify" viewBox="0 0 72 79.92" height="96" preserveAspectRatio="xMidYMid meet" version="1.0"><defs><clipPath id="b8451175a5"><path d="M 21.863281 21.828125 L 50.332031 21.828125 L 50.332031 50 L 21.863281 50 Z M 21.863281 21.828125 " clip-rule="nonzero"/></clipPath><clipPath id="17b99a1336"><path d="M 29 27 L 43 27 L 43 50.296875 L 29 50.296875 Z M 29 27 " clip-rule="nonzero"/></clipPath></defs><g clip-path="url(#b8451175a5)"><path fill="#f8d418" d="M 50.136719 35.964844 C 50.136719 28.15625 43.808594 21.828125 36 21.828125 C 28.191406 21.828125 21.863281 28.15625 21.863281 35.964844 C 21.863281 42.59375 26.425781 48.160156 32.585938 49.6875 L 32.585938 40.285156 L 29.667969 40.285156 L 29.667969 35.964844 L 32.585938 35.964844 L 32.585938 34.101562 C 32.585938 29.292969 34.761719 27.0625 39.488281 27.0625 C 40.382812 27.0625 41.929688 27.234375 42.558594 27.414062 L 42.558594 31.328125 C 42.226562 31.292969 41.648438 31.273438 40.925781 31.273438 C 38.609375 31.273438 37.710938 32.152344 37.710938 34.4375 L 37.710938 35.964844 L 42.332031 35.964844 L 41.539062 40.285156 L 37.710938 40.285156 L 37.710938 50 C 44.714844 49.152344 50.136719 43.191406 50.136719 35.964844 Z M 50.136719 35.964844 " fill-opacity="1" fill-rule="nonzero"/></g><g clip-path="url(#17b99a1336)"><path fill="#1c1f26" d="M 41.539062 40.285156 L 42.332031 35.964844 L 37.714844 35.964844 L 37.714844 34.4375 C 37.714844 32.152344 38.609375 31.273438 40.929688 31.273438 C 41.648438 31.273438 42.226562 31.292969 42.5625 31.328125 L 42.5625 27.414062 C 41.929688 27.238281 40.382812 27.0625 39.488281 27.0625 C 34.765625 27.0625 32.585938 29.292969 32.585938 34.101562 L 32.585938 35.964844 L 29.671875 35.964844 L 29.671875 40.285156 L 32.585938 40.285156 L 32.585938 49.6875 C 33.679688 49.960938 34.824219 50.105469 36.003906 50.105469 C 36.582031 50.105469 37.152344 50.066406 37.714844 50 L 37.714844 40.285156 Z M 41.539062 40.285156 " fill-opacity="1" fill-rule="nonzero"/></g></svg>