<svg xmlns="http://www.w3.org/2000/svg" xmlns:xlink="http://www.w3.org/1999/xlink" width="96" zoomAndPan="magnify" viewBox="0 0 72 79.92" height="96" preserveAspectRatio="xMidYMid meet" version="1.0"><defs><clipPath id="528bef4b07"><path d="M 20.238281 20.203125 L 51.707031 20.203125 L 51.707031 51.671875 L 20.238281 51.671875 Z M 20.238281 20.203125 " clip-rule="nonzero"/></clipPath></defs><g clip-path="url(#528bef4b07)"><path fill="#f8d418" d="M 51.753906 35.960938 C 51.753906 36.996094 51.652344 38.019531 51.453125 39.035156 C 51.25 40.050781 50.949219 41.035156 50.554688 41.992188 C 50.160156 42.945312 49.671875 43.855469 49.097656 44.714844 C 48.523438 45.574219 47.871094 46.371094 47.136719 47.101562 C 46.40625 47.835938 45.609375 48.488281 44.75 49.0625 C 43.890625 49.636719 42.980469 50.121094 42.027344 50.519531 C 41.070312 50.914062 40.085938 51.214844 39.070312 51.414062 C 38.054688 51.617188 37.03125 51.71875 35.996094 51.71875 C 34.960938 51.71875 33.9375 51.617188 32.921875 51.414062 C 31.90625 51.214844 30.921875 50.914062 29.964844 50.519531 C 29.011719 50.121094 28.101562 49.636719 27.242188 49.0625 C 26.382812 48.488281 25.585938 47.835938 24.855469 47.101562 C 24.121094 46.371094 23.46875 45.574219 22.894531 44.714844 C 22.320312 43.855469 21.835938 42.945312 21.4375 41.992188 C 21.042969 41.035156 20.742188 40.050781 20.542969 39.035156 C 20.339844 38.019531 20.238281 36.996094 20.238281 35.960938 C 20.238281 34.925781 20.339844 33.902344 20.542969 32.886719 C 20.742188 31.871094 21.042969 30.886719 21.4375 29.929688 C 21.835938 28.972656 22.320312 28.066406 22.894531 27.207031 C 23.46875 26.34375 24.121094 25.550781 24.855469 24.816406 C 25.585938 24.085938 26.382812 23.433594 27.242188 22.859375 C 28.101562 22.285156 29.011719 21.796875 29.964844 21.402344 C 30.921875 21.007812 31.90625 20.707031 32.921875 20.503906 C 33.9375 20.304688 34.960938 20.203125 35.996094 20.203125 C 37.03125 20.203125 38.054688 20.304688 39.070312 20.503906 C 40.085938 20.707031 41.070312 21.007812 42.027344 21.402344 C 42.980469 21.796875 43.890625 22.285156 44.75 22.859375 C 45.609375 23.433594 46.40625 24.085938 47.136719 24.816406 C 47.871094 25.550781 48.523438 26.34375 49.097656 27.207031 C 49.671875 28.066406 50.160156 28.972656 50.554688 29.929688 C 50.949219 30.886719 51.25 31.871094 51.453125 32.886719 C 51.652344 33.902344 51.753906 34.925781 51.753906 35.960938 Z M 51.753906 35.960938 " fill-opacity="1" fill-rule="nonzero"/></g><path fill="#1c1f26" d="M 41.917969 46.007812 L 30.085938 46.007812 C 27.804688 46.007812 25.960938 44.152344 25.960938 41.882812 L 25.960938 30.050781 C 25.960938 27.769531 27.804688 25.925781 30.085938 25.925781 L 41.917969 25.925781 C 44.1875 25.925781 46.042969 27.769531 46.042969 30.050781 L 46.042969 41.882812 C 46.042969 44.152344 44.1875 46.007812 41.917969 46.007812 Z M 30.085938 27.175781 C 28.5 27.175781 27.214844 28.464844 27.214844 30.050781 L 27.214844 41.882812 C 27.214844 43.464844 28.5 44.753906 30.085938 44.753906 L 41.917969 44.753906 C 43.503906 44.753906 44.792969 43.464844 44.792969 41.882812 L 44.792969 30.050781 C 44.792969 28.464844 43.503906 27.175781 41.917969 27.175781 Z M 30.085938 27.175781 " fill-opacity="1" fill-rule="evenodd"/><path fill="#1c1f26" d="M 35.996094 41.5625 C 32.910156 41.5625 30.40625 39.058594 30.40625 35.960938 C 30.40625 32.875 32.910156 30.367188 35.996094 30.367188 C 39.09375 30.367188 41.597656 32.875 41.597656 35.960938 C 41.597656 39.058594 39.09375 41.5625 35.996094 41.5625 Z M 35.996094 31.621094 C 33.609375 31.621094 31.65625 33.574219 31.65625 35.960938 C 31.65625 38.359375 33.609375 40.308594 35.996094 40.308594 C 38.394531 40.308594 40.347656 38.359375 40.347656 35.960938 C 40.347656 33.574219 38.394531 31.621094 35.996094 31.621094 Z M 35.996094 31.621094 " fill-opacity="1" fill-rule="evenodd"/><path fill="#1c1f26" d="M 33.066406 36.976562 C 32.710938 36.976562 32.4375 36.691406 32.4375 36.351562 C 32.4375 34.175781 34.210938 32.402344 36.386719 32.402344 C 36.730469 32.402344 37.011719 32.675781 37.011719 33.027344 C 37.011719 33.371094 36.730469 33.65625 36.386719 33.65625 C 34.898438 33.65625 33.691406 34.859375 33.691406 36.351562 C 33.691406 36.691406 33.40625 36.976562 33.066406 36.976562 Z M 33.066406 36.976562 " fill-opacity="1" fill-rule="evenodd"/><path fill="#1c1f26" d="M 31.03125 36.585938 L 28.75 36.585938 C 28.40625 36.585938 28.125 36.316406 28.125 35.960938 C 28.125 35.617188 28.40625 35.332031 28.75 35.332031 L 31.03125 35.332031 C 31.375 35.332031 31.65625 35.617188 31.65625 35.960938 C 31.65625 36.316406 31.375 36.585938 31.03125 36.585938 Z M 31.03125 36.585938 " fill-opacity="1" fill-rule="evenodd"/><path fill="#1c1f26" d="M 43.195312 36.585938 L 40.972656 36.585938 C 40.628906 36.585938 40.347656 36.316406 40.347656 35.960938 C 40.347656 35.617188 40.628906 35.332031 40.972656 35.332031 L 43.195312 35.332031 C 43.539062 35.332031 43.820312 35.617188 43.820312 35.960938 C 43.820312 36.316406 43.539062 36.585938 43.195312 36.585938 Z M 43.195312 36.585938 " fill-opacity="1" fill-rule="evenodd"/><path fill="#1c1f26" d="M 40.546875 43.832031 L 31.445312 43.832031 C 29.613281 43.832031 28.125 42.34375 28.125 40.511719 L 28.125 31.410156 C 28.125 29.578125 29.613281 28.085938 31.445312 28.085938 L 40.546875 28.085938 C 42.378906 28.085938 43.871094 29.578125 43.871094 31.410156 L 43.871094 40.511719 C 43.871094 42.34375 42.378906 43.832031 40.546875 43.832031 Z M 31.445312 29.339844 C 30.308594 29.339844 29.375 30.273438 29.375 31.410156 L 29.375 40.511719 C 29.375 41.65625 30.308594 42.582031 31.445312 42.582031 L 40.546875 42.582031 C 41.695312 42.582031 42.617188 41.65625 42.617188 40.511719 L 42.617188 31.410156 C 42.617188 30.273438 41.695312 29.339844 40.546875 29.339844 Z M 31.445312 29.339844 " fill-opacity="1" fill-rule="evenodd"/></svg>