<svg xmlns="http://www.w3.org/2000/svg" xmlns:xlink="http://www.w3.org/1999/xlink" width="96" zoomAndPan="magnify" viewBox="0 0 72 79.92" height="96" preserveAspectRatio="xMidYMid meet" version="1.0"><defs><clipPath id="90b7e220eb"><path d="M 18.925781 18.730469 L 53.390625 18.730469 L 53.390625 53 L 18.925781 53 Z M 18.925781 18.730469 " clip-rule="nonzero"/></clipPath></defs><g clip-path="url(#90b7e220eb)"><path fill="#f8d418" d="M 48.03125 47.867188 L 42.96875 47.867188 L 42.96875 39.941406 C 42.96875 38.050781 42.933594 35.617188 40.335938 35.617188 C 37.738281 35.617188 37.296875 37.679688 37.296875 39.804688 L 37.296875 47.867188 L 32.234375 47.867188 L 32.234375 31.566406 L 37.09375 31.566406 L 37.09375 33.796875 L 37.160156 33.796875 C 38.152344 32.101562 39.996094 31.089844 41.957031 31.164062 C 47.085938 31.164062 48.03125 34.539062 48.03125 38.925781 L 48.03125 47.871094 Z M 26.523438 29.339844 C 24.902344 29.339844 23.589844 28.027344 23.585938 26.402344 C 23.585938 24.78125 24.902344 23.464844 26.523438 23.464844 C 28.148438 23.464844 29.460938 24.777344 29.460938 26.402344 C 29.464844 28.023438 28.148438 29.339844 26.523438 29.339844 M 29.054688 47.867188 L 23.988281 47.867188 L 23.988281 31.566406 L 29.054688 31.566406 Z M 50.554688 18.765625 L 21.445312 18.765625 C 20.070312 18.75 18.941406 19.851562 18.925781 21.226562 L 18.925781 50.457031 C 18.941406 51.832031 20.070312 52.9375 21.445312 52.921875 L 50.554688 52.921875 C 51.933594 52.941406 53.066406 51.835938 53.085938 50.457031 L 53.085938 21.226562 C 53.066406 19.847656 51.933594 18.746094 50.554688 18.761719 " fill-opacity="1" fill-rule="nonzero"/></g></svg>