<svg xmlns="http://www.w3.org/2000/svg" xmlns:xlink="http://www.w3.org/1999/xlink" width="96" zoomAndPan="magnify" viewBox="0 0 72 79.92" height="96" preserveAspectRatio="xMidYMid meet" version="1.0"><defs><clipPath id="aef5750d81"><path d="M 20.722656 20.683594 L 51.441406 20.683594 L 51.441406 51.40625 L 20.722656 51.40625 Z M 20.722656 20.683594 " clip-rule="nonzero"/></clipPath></defs><g clip-path="url(#aef5750d81)"><path fill="#f8d418" d="M 51.277344 35.964844 C 51.277344 36.96875 51.179688 37.960938 50.984375 38.945312 C 50.785156 39.929688 50.496094 40.882812 50.113281 41.8125 C 49.730469 42.738281 49.257812 43.617188 48.703125 44.453125 C 48.144531 45.285156 47.511719 46.058594 46.800781 46.765625 C 46.09375 47.476562 45.320312 48.109375 44.488281 48.667969 C 43.652344 49.222656 42.773438 49.695312 41.84375 50.078125 C 40.917969 50.460938 39.964844 50.753906 38.980469 50.949219 C 37.996094 51.144531 37.003906 51.242188 36 51.242188 C 34.996094 51.242188 34.003906 51.144531 33.019531 50.949219 C 32.035156 50.753906 31.078125 50.460938 30.152344 50.078125 C 29.226562 49.695312 28.347656 49.222656 27.511719 48.667969 C 26.679688 48.109375 25.90625 47.476562 25.195312 46.765625 C 24.488281 46.058594 23.855469 45.285156 23.296875 44.453125 C 22.738281 43.617188 22.269531 42.738281 21.886719 41.8125 C 21.5 40.882812 21.210938 39.929688 21.015625 38.945312 C 20.820312 37.960938 20.722656 36.96875 20.722656 35.964844 C 20.722656 34.960938 20.820312 33.96875 21.015625 32.984375 C 21.210938 32 21.5 31.046875 21.886719 30.117188 C 22.269531 29.191406 22.738281 28.3125 23.296875 27.476562 C 23.855469 26.644531 24.488281 25.871094 25.195312 25.160156 C 25.90625 24.453125 26.679688 23.820312 27.511719 23.261719 C 28.347656 22.703125 29.226562 22.234375 30.152344 21.851562 C 31.078125 21.464844 32.035156 21.175781 33.019531 20.980469 C 34.003906 20.785156 34.996094 20.6875 36 20.6875 C 37.003906 20.6875 37.996094 20.785156 38.980469 20.980469 C 39.964844 21.175781 40.917969 21.464844 41.84375 21.851562 C 42.773438 22.234375 43.652344 22.703125 44.488281 23.261719 C 45.320312 23.820312 46.09375 24.453125 46.800781 25.164062 C 47.511719 25.871094 48.144531 26.644531 48.703125 27.476562 C 49.257812 28.3125 49.730469 29.191406 50.113281 30.117188 C 50.496094 31.046875 50.785156 32 50.984375 32.984375 C 51.179688 33.96875 51.277344 34.960938 51.277344 35.964844 Z M 51.277344 35.964844 " fill-opacity="1" fill-rule="nonzero"/></g><path fill="#1c1f26" d="M 36.152344 45.464844 L 36.140625 45.464844 C 33.304688 45.445312 31.128906 44.507812 29.664062 42.6875 C 28.363281 41.0625 27.6875 38.804688 27.667969 35.972656 L 27.667969 35.960938 C 27.6875 33.125 28.363281 30.871094 29.664062 29.246094 C 31.128906 27.421875 33.308594 26.484375 36.140625 26.464844 L 36.152344 26.464844 C 38.324219 26.480469 40.144531 27.039062 41.554688 28.125 C 42.882812 29.148438 43.816406 30.605469 44.332031 32.453125 L 42.71875 32.90625 C 41.84375 29.769531 39.632812 28.167969 36.144531 28.144531 C 33.84375 28.160156 32.101562 28.886719 30.96875 30.292969 C 29.910156 31.613281 29.363281 33.523438 29.34375 35.964844 C 29.363281 38.40625 29.910156 40.316406 30.96875 41.636719 C 32.101562 43.046875 33.84375 43.769531 36.148438 43.785156 C 38.222656 43.769531 39.597656 43.285156 40.738281 42.167969 C 42.042969 40.890625 42.019531 39.324219 41.601562 38.371094 C 41.355469 37.808594 40.910156 37.339844 40.308594 36.984375 C 40.15625 38.054688 39.816406 38.921875 39.289062 39.574219 C 38.589844 40.445312 37.597656 40.921875 36.339844 40.992188 C 35.386719 41.042969 34.46875 40.816406 33.757812 40.355469 C 32.917969 39.8125 32.425781 38.980469 32.371094 38.011719 C 32.320312 37.070312 32.695312 36.203125 33.425781 35.570312 C 34.121094 34.96875 35.101562 34.617188 36.261719 34.550781 C 37.113281 34.503906 37.914062 34.539062 38.648438 34.660156 C 38.550781 34.074219 38.355469 33.605469 38.058594 33.269531 C 37.652344 32.808594 37.023438 32.570312 36.191406 32.566406 L 36.167969 32.566406 C 35.5 32.566406 34.589844 32.75 34.011719 33.609375 L 32.621094 32.679688 C 33.398438 31.527344 34.65625 30.894531 36.167969 30.894531 L 36.203125 30.894531 C 38.730469 30.90625 40.238281 32.457031 40.386719 35.15625 C 40.472656 35.195312 40.558594 35.230469 40.640625 35.269531 C 41.820312 35.824219 42.683594 36.664062 43.136719 37.699219 C 43.769531 39.140625 43.828125 41.492188 41.910156 43.367188 C 40.449219 44.796875 38.671875 45.445312 36.152344 45.464844 Z M 36.941406 36.210938 C 36.75 36.210938 36.554688 36.214844 36.355469 36.226562 C 34.902344 36.308594 33.996094 36.976562 34.046875 37.921875 C 34.101562 38.917969 35.195312 39.378906 36.25 39.320312 C 37.21875 39.269531 38.480469 38.890625 38.695312 36.382812 C 38.160156 36.269531 37.570312 36.210938 36.941406 36.210938 Z M 36.941406 36.210938 " fill-opacity="1" fill-rule="nonzero"/></svg>